<svg aria-label="DIELINE" focusable="false" role="img" viewBox="0 0 1344 229" xmlns="http://www.w3.org/2000/svg"><path d="M213.537 51.889V177.1l-62.769 51.854H0V0h150.768l62.769 51.889Zm-89.298 0H55.976V177.1h68.263l32.678-26.884V79.141L124.239 51.89ZM257.547 0h55.964v228.988h-55.964V0ZM420.28 51.889v36.655h81.539v50.598H420.28V177.1h117.446v51.854H364.315V0h173.411v51.854l-117.446.035ZM747.712 177.1v51.854H581.048V0h55.976v177.1h110.688ZM788.159 0h55.965v228.988h-55.965V0Zm331.951 0v228.988h-100.62L959.627 50.276h-9.701v178.712h-54.942V0h100.619l59.847 178.713h9.65V0h55.01Zm106.44 51.889v36.655h81.54v50.598h-81.54V177.1H1344v51.854h-173.42V0H1344v51.854l-117.45.035Z" fill="currentcolor"></path></svg>