<?xml version="1.0" encoding="UTF-8"?>
<svg id="Layer_1" data-name="Layer 1" xmlns="http://www.w3.org/2000/svg" viewBox="0 0 512 244.33">
  <defs>
    <style>
      .cls-1 {
        fill: #fff;
      }
    </style>
  </defs>
  <path class="cls-1" d="M328.97,72.94c0,40.28-32.68,72.94-72.99,72.94s-72.99-32.66-72.99-72.94S215.67,0,255.98,0s72.99,32.66,72.99,72.94ZM278.14,105.74l1.21-4.13,3.11-9.38,7.31-22.5,1.87-5.33-8.59-6.26-7.68-5.52-16.22-11.71-2.68-1.77c-.16-.11-.53-.64-.65-.51l-.45.53-15.8,11.4-7.4,5.36-4.06,2.97-7.54,5.38,8.97,27.33,3.63,11.15.87,3h39.23s4.88.01,4.88.01Z"/>
  <g>
    <path class="cls-1" d="M306.07,197.79c.5-1.94-2.13-2.93-4.45-3.76v-1.98s14.82.02,14.82.02l.04,1.92c-2.59.25-4.16,1.7-4.95,4.01l-2.45,7.22-8.04,23.71-8.4.05-3.04-9.37-3.53-10.28-.46-.29c-.12-.08-.49.24-.54.4l-2.51,7.08-3.19,9.47-1.05,2.99-8.27-.04-4.96-15.62-2.35-7.34-2.33-7.05c-.46-1.39-.86-3.25-2.26-3.89l-2.59-1.18v-1.8s19.48-.01,19.48-.01l.25,1.74-3.12,1.25c-.46.18-1.12.8-1.31,1.24-.18.42-.08,1.31.1,1.89l5.86,19.25c.08.25.37.64.56.69s.65-.33.73-.58l2.95-8.49c2-5.75,3.85-8.09.37-13.47-.64-.99-2.11-1.26-3.08-1.64v-1.86s18.35-.05,18.35-.05c.21.56.22,1.39.02,1.85l-2.84,1.33c-.55.26-.75,1.44-.65,2.11l6.11,20.15.42.59c.12.17.62-.2.77-.4l3.86-13.47,1.65-6.41Z"/>
    <path class="cls-1" d="M441.88,229.99c-6.21-.13-9.93-2.89-11.84-8.74-1.15-3.51-1.25-7.08-1.28-10.75-.04-4.57.99-8.92,3.5-12.69,1.63-2.45,3.8-4.06,6.49-5.27,3.87-1.74,8.07-1.99,12.31-1.2.63.12,2.19-.04,2.19-.79v-9.18c0-1-.64-2.17-1.57-2.5l-3.48-1.25c-.02-.64,0-1.36.13-2l15.18-1.54.02,48.57c0,1.67.96,2.79,2.45,3.32l2.79.99c.07.65-.05,1.52-.26,2.04l-4.72.17-9.31-.1-.91-2.35c-.49-.23-1.62.18-2.12.53-2.91,2.05-6.02,2.83-9.56,2.75ZM451.79,223.8c.82-.61,1.51-1.77,1.51-2.78l.05-19.68c0-3.24-1.61-5.83-4.85-6.45-2.56-.49-4.92.07-6.6,2.32-1.2,1.6-2.01,3.95-2.02,6.13l-.04,11.3.56,3.22c.37,2.15,1.2,4.34,2.89,5.83,2.34,2.06,5.97,2,8.5.12Z"/>
    <path class="cls-1" d="M21.31,244.1l-2.23.22H2.16c-.73,0-1.57-.14-2.16-.32l.19-2.07,2.68-.83c1.47-.46,2.38-1.54,2.38-3.21v-36.3s-.13-2.38-.13-2.38c-.06-1.23-.64-2.21-1.75-2.66l-3.22-1.3.05-1.93,13.24-1.98c1-.15.72,2.21,2.37,3.34,3.65-3.09,8.01-4.23,12.71-3.58,2.9.4,5.87,1.52,7.86,3.76,3.99,4.47,4.18,12.86,3.6,18.92-.41,4.32-2.5,9.16-5.82,11.98-5.06,4.3-11.18,4.7-17.68,3.7-.39-.06-.94.36-.94.77l-.02,7.53c0,2.77,2.75,3.49,5.59,4.2.25.47.3,1.35.2,2.14ZM29.28,212.61c.05-4.58-.3-12.25-3.36-15.08-1.55-1.44-3.89-2.04-5.94-1.74-2.34.34-4.41,1.91-4.42,4.39l-.05,20.17c0,2.02.94,3.96,2.62,4.95,2.27,1.34,4.95,1.17,7.27-.03,3.63-1.87,3.82-8.47,3.87-12.66Z"/>
    <path class="cls-1" d="M124.15,221.89c0,1.71.38,3.16,1.96,3.92l2.53,1.21c.16.55.05,1.42-.24,1.99l-19.27-.02-.15-2.06,2.85-1.02c1.61-.58,2.33-2.02,2.31-3.67l-.05-6.67.03-16.03c0-1.31-.61-2.53-1.83-3.02l-3.21-1.31-.05-1.83,7.9-1.15,5.72-.93,1.45,3.45,4.33-2.32c4.31-2.31,13.54-1.89,16.28,2.25,1.4,2.11,2.11,4.66,2.12,7.24l.06,20.78c0,2.7,2.16,3.31,4.87,4.12.11.58.14,1.35.06,2.14l-19.17.04c-.34-.31-.4-1.09-.31-1.61.07-.38.67-.78,1.27-.93,1.38-.34,3.08-1.62,3.08-3.3l.02-20.66c0-1.49-.44-3.08-1.1-4.31-1.58-2.96-7.66-3.55-10.59-.46-.51.54-.82,1.67-.82,2.5l-.05,21.65Z"/>
    <path class="cls-1" d="M207.12,222.04c-1.05-6.25,1.25-10.36,6.87-12.75,2.55-1.08,5.25-1.48,8-2.05l5.48-1.13c.89-2.79.36-6.46-1.74-8.5-2.27-2.2-8.01-1.78-11.17.95l-2.68,2.32c-.52-.51-1.04-1.18-1.42-1.85l5.59-5.81c2.38-2.48,16.6-3.91,20.02,1.56,1.53,2.44,1.85,5.32,1.86,8.21l.06,20.19c0,2.07,2.9,3.24,5.31,3.72l-.11,2.03-14.22.03-1.46-2.66c-1.86,1.22-3.31,2.31-5.3,2.86-2.38.66-4.85.91-7.24.59-4.18-.55-7.14-3.52-7.85-7.71ZM227.88,220.14l-.04-8.49c0-.86-.55-1.68-1.59-1.54l-3.37.44c-1.68.22-3.44.77-4.62,2.05-1.85,1.99-1.46,7.74-.09,10.2,1.16,2.08,3.65,2.87,5.94,2.22,1.95-.55,3.78-2.41,3.77-4.88Z"/>
    <path class="cls-1" d="M349.96,226.31c-4.96,3.84-13.3,5.26-17.7.88-3.62-3.6-4.01-12.51,1.11-16.11,2.69-1.9,5.8-2.79,9.01-3.4l6.72-1.27c1.12-.21,1.29-1.03,1.29-2.07.01-2.42-.24-5.38-2.37-6.96-2.46-1.82-5.87-1.47-8.6-.26-1.82.81-3.2,2.23-4.85,3.51-.66-.15-1.2-.91-1.48-1.59l2.44-2.75c1.15-1.3,2.32-2.72,3.9-3.57,1.22-.66,2.79-1.16,4.17-1.33,4.91-.61,11.82-.68,14.74,3.17,1.12,1.48,1.84,3.36,1.95,5.22l.23,3.92.04,4.71.05,14.54c0,2.48,2.44,3.24,4.97,3.9l.06,2.06h-14.03c-.41-1.11-.82-1.91-1.66-2.6ZM347.38,224.79c1.91-.77,3.03-2.35,3.03-4.33v-8.23c0-.58.09-1.85-.68-2.05l-6.67.87c-1.41.41-2.53,1.41-2.96,2.83-.86,2.87-.73,6.12.65,8.83,1.23,2.42,4.17,3.07,6.63,2.08Z"/>
    <path class="cls-1" d="M90.34,220.66c.39.53.81,1.49.92,2.1l-2.8,2.3-3.41,2.42c-4.43,3.15-14.69,3.39-20-.04-1.69-1.09-3.18-2.78-4.22-4.54l-1.14-2.6c-1.31-3.79-1.58-7.69-1.47-11.69l.48-4.4c.3-2.73,1.63-5.09,3.36-7.18,2.44-2.94,5.5-4.85,9.31-5.49,6.53-1.1,15.19-.45,18.38,5.62,2.3,4.38,2.8,12.18.96,12.62-1.38.33-2.74.37-4.14.37l-15.98-.05c-.99,0-1.61.65-1.69,1.56-.27,2.89.45,5.52,1.95,7.95,3.82,6.16,13.66,5.5,19.48,1.06ZM80.51,206.53c.55,0,1.14-.57,1.16-1.02.19-3.14-.39-6.21-2.39-8.63-1.56-1.89-4.22-2.8-6.49-1.85-3.36,1.4-4.27,6.77-3.88,10.53.05.5,1.16,1.06,1.66,1.06l9.93-.09Z"/>
    <path class="cls-1" d="M506.85,226.94c-5.94,3.9-16.93,4.1-22.75-.08-.76-.54-1.52-1.63-1.65-2.45l2.58-5.15,1.28-2.76,1.66-.07c.71,2.78,1.87,5.46,4.01,7.45,2.16,2.02,5.29,2.86,8.03,2.25,2.2-.49,3.63-1.88,4.17-3.77.56-1.99-.25-4.16-2.02-5.38-1.62-1.12-3.58-1.66-5.45-2.3l-5.77-1.99c-5.27-1.82-7.63-6.04-7.04-11.61.31-2.92,1.84-5.51,4.19-7.17,4.68-3.3,11.02-3.34,16.59-2.12,2.05.45,3.92,1.5,5.51,2.89.25,1.2-.46,2.32-1,3.38l-2.41,4.78c-.24.26-1.13.27-1.5.05-1.32-3.31-2.01-5.21-5.05-7.23-3.02-2.01-8.03-1.15-8.71,2.08-.98,4.67,3.61,6.07,8.12,7.29,2.42.66,4.7,1.57,6.96,2.61,2.87,1.32,4.66,3.84,5.21,6.99.82,4.63-.93,9.64-4.96,12.28Z"/>
    <path class="cls-1" d="M191.17,227.42l-2.91.99c-3.43,1.16-6.9,1.9-10.47,1.38-2.83-.41-4.99-2.16-5.53-5.04l-.37-4.1-.08-8.04v-7.05s.03-8.7.03-8.7c-.42-.62-1.37-1.22-2.03-1.41l-2.43-.7c-.37-.32-.29-1.67.13-2.04,4.36-1.15,5.06-.69,6.46-4.43l1.85-4.96,1-2.82,3.09-.02,1.92,9.05c.19.92.9,1.86,1.85,2.01l5.71.91.18,2.1-2.72.74-2.41.56c-1.45.33-2.38.93-2.38,2.54v18.39c.01,1.85.33,3.69,1.06,5.38.24.55,1.21,1.44,1.73,1.75,1.86,1.09,3.85,1.26,6.01,1.32l.31,2.19Z"/>
    <path class="cls-1" d="M385.02,228.95l-.13-2.04,2.52-.77c1.7-.52,2.79-1.86,2.79-3.75v-22.58c-.02-1.48-.5-2.73-1.89-3.27l-3.4-1.32c-.04-.56.04-1.38.29-1.86l13.39-2.05.8,2.18c.24.65.65,1.38,1.32,1.63l2.79-2.06c3.74-2.77,9.75-2.8,11.07,0,.5,1.05.06,1.94-.4,2.9l-2.64,5.56c-.35.16-1.19.27-1.47.07-1.11-.79-1.54-4.58-6.01-4.34-2.23.12-3.7,1.62-3.7,3.87l.02,21.58c0,1.64.88,2.77,2.4,3.23l3.06.94-.06,2.13-20.75-.04Z"/>
  </g>
</svg>