<svg aria-labelledby="printmag-logo-title" focusable="false" id="printmag-logo" role="img" viewBox="0 0 455 118" xmlns="http://www.w3.org/2000/svg">
<title id="printmag-logo-title">PRINT Magazine</title>
<path d="M422.8 117.7h-27.9V25h-32.2V.1H455v25h-32.2zM291.9 65.9L281 49.4l.2 21.9v46.4h-27.9V.1H279l35.7 51.8 10.9 16.6-.2-22V.1h27.8v117.6h-25.7zM239.4.1h-27.8v117.6h27.8zM153.5 0c21.3 0 44.3 6 44.3 38.4 0 20.7-9 30.7-21 35l26.7 44.1h-33.6L147.1 77h-17.8v40.6h-27.7V0h52zm2.1 24.8h-26.2V52h26.2c5.8 0 13.8-1 13.8-13.6 0-12.3-8-13.6-13.8-13.6zM48.1 0c21.3 0 43.6 7.5 43.6 40S70 80 48.7 80H27.8v37.6H0V0h48.1zm2.2 24.8H27.8v30h22.4v.2c6 0 13-2.6 13-15s-7-15.2-12.9-15.2z" fill="currentColor"></path>
</svg>