<svg width="357" height="31" viewBox="0 0 357 31" fill="none" xmlns="http://www.w3.org/2000/svg">
<g clip-path="url(#clip0_2087_2912)">
<path d="M0 0.261976L5.17955 0.21875L11.6635 24.3747L18.4552 0.261976H23.1999L29.8161 24.3747L36.3433 0.261976H41.4796L32.7301 30.729H26.8971L20.6724 8.31482L14.5368 30.729H8.66056L0 0.261976Z" fill="white"/>
<path d="M44.2614 0.261963H49.2655V30.729H44.2614V0.261963Z" fill="white"/>
<path d="M54.8367 30.729V0.261963H65.1958C74.7285 0.261963 80.7344 6.39758 80.7344 15.4523C80.7344 24.5069 74.7285 30.729 65.1958 30.729H54.8367ZM59.8408 26.3759H65.1932C71.8959 26.3759 75.5956 21.9795 75.5956 15.4523C75.5956 8.92506 71.8959 4.61513 65.1932 4.61513H59.8408V26.3759Z" fill="white"/>
<path d="M80.8081 30.729L92.2123 0.261963H98.175L109.536 30.729H104.183L101.31 23.2H88.8177L85.9877 30.729H80.8081ZM90.2086 18.9333H99.9142L95.0398 5.65765L90.2086 18.9333Z" fill="white"/>
<path d="M112.234 0.261963H124.246C130.6 0.261963 134.867 4.0481 134.867 9.96758C134.867 14.0588 132.517 17.3237 128.947 18.5849L135.388 30.729H129.817L123.941 19.6732H117.238V30.729H112.234V0.261963ZM117.24 4.61513V15.3226H123.857C127.427 15.3226 129.733 13.2325 129.733 9.97013C129.733 6.7078 127.427 4.61767 123.857 4.61767H117.24V4.61513Z" fill="white"/>
<path d="M136.7 0.261963H160.508V4.70158H151.107V30.729H146.103V4.70158H136.702V0.261963H136.7Z" fill="white"/>
<path d="M175.901 30.9883C167.152 30.9883 161.103 24.4153 161.103 15.4929C161.103 6.57043 167.152 0 175.901 0C184.651 0 190.7 6.57297 190.7 15.4954C190.7 24.4179 184.651 30.9909 175.901 30.9909V30.9883ZM175.901 26.5945C181.689 26.5945 185.564 21.9387 185.564 15.4954C185.564 9.05214 181.691 4.39639 175.901 4.39639C170.112 4.39639 166.239 9.05214 166.239 15.4954C166.239 21.9387 170.112 26.5945 175.901 26.5945Z" fill="white"/>
<path d="M206.234 0.261963H211.238V30.729H206.234V0.261963Z" fill="white"/>
<path d="M216.809 0.261963H223.295L233.044 24.2425L242.618 0.261963H248.972V30.729H244.141V8.31226L235.002 30.7265H230.781L221.643 8.31226V30.7265H216.811V0.261963H216.809Z" fill="white"/>
<path d="M254.65 0.261963H266.662C273.016 0.261963 277.194 4.0481 277.194 9.96758C277.194 15.8871 273.016 19.6732 266.662 19.6732H259.654V30.729H254.65V0.261963ZM259.654 4.61513V15.3226H266.227C269.797 15.3226 272.103 13.2325 272.103 9.97013C272.103 6.7078 269.84 4.61767 266.27 4.61767H259.654V4.61513Z" fill="white"/>
<path d="M275.566 30.729L286.971 0.261963H292.933L304.294 30.729H298.942L296.068 23.2H283.576L280.746 30.729H275.566ZM284.969 18.9333H294.675L289.801 5.65765L284.969 18.9333Z" fill="white"/>
<path d="M304.37 15.4954C304.37 6.22462 310.071 0 319.08 0C326.045 0 331.049 4.17771 332.051 10.621H326.871C325.869 6.79165 322.999 4.39639 318.864 4.39639C313.074 4.39639 309.507 8.96568 309.507 15.4954C309.507 22.0252 312.988 26.5945 318.734 26.5945C322.955 26.5945 325.872 24.245 326.83 20.3699H332.01C331.051 26.8106 325.874 30.9909 318.778 30.9909C309.898 30.9909 304.37 24.8552 304.37 15.4954Z" fill="white"/>
<path d="M333.192 0.261963H357V4.70158H347.6V30.729H342.595V4.70158H333.195V0.261963H333.192Z" fill="white"/>
</g>
<defs>
<clipPath id="clip0_2087_2912">
<rect width="357" height="30.9883" fill="white"/>
</clipPath>
</defs>
</svg>
